<!-- Generated by IcoMoon.io -->
<svg version="1.1" xmlns="http://www.w3.org/2000/svg" width="32" height="32" viewBox="0 0 32 32">
<title>Play</title>
<path fill="#5c5f62" d="M6.933 1.6c-1.109 0-2.133 0.888-2.133 2.131v24.536c0 0.003-0 0.006-0 0.009 0 1.174 0.951 2.125 2.125 2.125 0.406 0 0.785-0.114 1.107-0.311l-0.009 0.005 20.459-12.264c0.625-0.378 1.036-1.054 1.036-1.826s-0.411-1.448-1.026-1.821l-0.009-0.005-20.458-12.272c-0.311-0.191-0.688-0.306-1.091-0.307h-0zM8 5.624l17.304 10.381-17.304 10.371v-20.752z"></path>
</svg>
