<svg aria-hidden="true" style="position: absolute; width: 0; height: 0; overflow: hidden;" version="1.1" xmlns="http://www.w3.org/2000/svg" xmlns:xlink="http://www.w3.org/1999/xlink">
<defs>
<symbol id="icon-Pause" viewBox="0 0 32 32">
<path fill="#5c5f62" style="fill: var(--color1, #5c5f62)" d="M9.6 0c-0.884 0-1.6 0.716-1.6 1.6v0 28.8c0 0.884 0.716 1.6 1.6 1.6s1.6-0.716 1.6-1.6v0-28.8c0-0.884-0.716-1.6-1.6-1.6v0zM22.4 0c-0.884 0-1.6 0.716-1.6 1.6v0 28.8c0 0.884 0.716 1.6 1.6 1.6s1.6-0.716 1.6-1.6v0-28.8c0-0.884-0.716-1.6-1.6-1.6v0z"></path>
</symbol>
<symbol id="icon-Play" viewBox="0 0 32 32">
<path fill="#5c5f62" style="fill: var(--color1, #5c5f62)" d="M6.933 1.6c-1.109 0-2.133 0.888-2.133 2.131v24.536c0 0.003-0 0.006-0 0.009 0 1.174 0.951 2.125 2.125 2.125 0.406 0 0.785-0.114 1.107-0.311l-0.009 0.005 20.459-12.264c0.625-0.378 1.036-1.054 1.036-1.826s-0.411-1.448-1.026-1.821l-0.009-0.005-20.458-12.272c-0.311-0.191-0.688-0.306-1.091-0.307h-0zM8 5.624l17.304 10.381-17.304 10.371v-20.752z"></path>
</symbol>
<symbol id="icon-chevron-small-down" viewBox="0 0 20 20">
<path d="M13.418 7.859c0.271-0.268 0.709-0.268 0.978 0s0.272 0.701 0 0.969l-3.908 3.83c-0.27 0.268-0.707 0.268-0.979 0l-3.908-3.83c-0.27-0.267-0.27-0.701 0-0.969s0.709-0.268 0.978 0l3.421 3.141 3.418-3.141z"></path>
</symbol>
<symbol id="icon-controller-paus" viewBox="0 0 20 20">
<path d="M15 3h-2c-0.553 0-1 0.048-1 0.6v12.8c0 0.552 0.447 0.6 1 0.6h2c0.553 0 1-0.048 1-0.6v-12.8c0-0.552-0.447-0.6-1-0.6zM7 3h-2c-0.553 0-1 0.048-1 0.6v12.8c0 0.552 0.447 0.6 1 0.6h2c0.553 0 1-0.048 1-0.6v-12.8c0-0.552-0.447-0.6-1-0.6z"></path>
</symbol>
<symbol id="icon-arrow-up2" viewBox="0 0 32 32">
<path d="M27.414 12.586l-10-10c-0.781-0.781-2.047-0.781-2.828 0l-10 10c-0.781 0.781-0.781 2.047 0 2.828s2.047 0.781 2.828 0l6.586-6.586v19.172c0 1.105 0.895 2 2 2s2-0.895 2-2v-19.172l6.586 6.586c0.39 0.39 0.902 0.586 1.414 0.586s1.024-0.195 1.414-0.586c0.781-0.781 0.781-2.047 0-2.828z"></path>
</symbol>
<symbol id="icon-arrow-right2" viewBox="0 0 32 32">
<path d="M19.414 27.414l10-10c0.781-0.781 0.781-2.047 0-2.828l-10-10c-0.781-0.781-2.047-0.781-2.828 0s-0.781 2.047 0 2.828l6.586 6.586h-19.172c-1.105 0-2 0.895-2 2s0.895 2 2 2h19.172l-6.586 6.586c-0.39 0.39-0.586 0.902-0.586 1.414s0.195 1.024 0.586 1.414c0.781 0.781 2.047 0.781 2.828 0z"></path>
</symbol>
</defs>
</svg>
